HIERARCHY
ROOT Hips
{
	OFFSET 0.000000 0.000000 0.000000 
	CHANNELS 6 Xposition Yposition Zposition Zrotation Yrotation Xrotation
	JOINT LeftUpLeg
	{
		OFFSET 1.363060 -1.794630 0.839290 
		CHANNELS 3 Zrotation Yrotation Xrotation
		JOINT LeftLeg
		{
			OFFSET 2.448110 -6.726130 0.000000 
			CHANNELS 3 Zrotation Yrotation Xrotation
			JOINT LeftFoot
			{
				OFFSET 2.562200 -7.039590 0.000000 
				CHANNELS 3 Zrotation Yrotation Xrotation
				JOINT LeftToeBase
				{
					OFFSET 0.157640 -0.433110 2.322550 
					CHANNELS 3 Zrotation Yrotation Xrotation
					End Site
					{
						OFFSET 0.000000 0.000000 0.000000 
					}
				}
			}
		}
	}
	JOINT RightUpLeg
	{
		OFFSET -1.305520 -1.794630 0.839290 
		CHANNELS 3 Zrotation Yrotation Xrotation
		JOINT RightLeg
		{
			OFFSET -2.542530 -6.985550 0.000000 
			CHANNELS 3 Zrotation Yrotation Xrotation
			JOINT RightFoot
			{
				OFFSET -2.568260 -7.056230 0.000000 
				CHANNELS 3 Zrotation Yrotation Xrotation
				JOINT RightToeBase
				{
					OFFSET -0.164730 -0.452590 2.363150 
					CHANNELS 3 Zrotation Yrotation Xrotation
					End Site
					{
						OFFSET 0.000000 0.000000 0.000000 
					}
				}
			}
		}
	}
	JOINT Spine
	{
		OFFSET 0.028270 2.035590 -0.193380 
		CHANNELS 3 Zrotation Yrotation Xrotation
		JOINT Spine1
		{
			OFFSET 0.056720 2.048850 -0.042750 
			CHANNELS 3 Zrotation Yrotation Xrotation
			JOINT Neck1
			{
				OFFSET -0.054170 1.746240 0.172020 
				CHANNELS 3 Zrotation Yrotation Xrotation
				JOINT Head
				{
					OFFSET 0.104070 1.761360 -0.123970 
					CHANNELS 3 Zrotation Yrotation Xrotation
					End Site
					{
						OFFSET 0.000000 0.000000 0.000000 
					}
				}
			}
			JOINT LeftArm
			{
				OFFSET 3.362410 1.200890 -0.311210 
				CHANNELS 3 Zrotation Yrotation Xrotation
				JOINT LeftForeArm
				{
					OFFSET 4.983000 -0.000000 -0.000000 
					CHANNELS 3 Zrotation Yrotation Xrotation
					JOINT LeftHand
					{
						OFFSET 3.483560 -0.000000 -0.000000 
						CHANNELS 3 Zrotation Yrotation Xrotation
						JOINT LeftHandIndex1
						{
							OFFSET 0.715260 -0.000000 -0.000000 
							CHANNELS 3 Zrotation Yrotation Xrotation
							End Site
							{
								OFFSET 0.000000 0.000000 0.000000 
							}
						}
					}
				}
			}
			JOINT RightArm
			{
				OFFSET -3.136600 1.374050 -0.404650 
				CHANNELS 3 Zrotation Yrotation Xrotation
				JOINT RightForeArm
				{
					OFFSET -5.241900 -0.000000 -0.000000 
					CHANNELS 3 Zrotation Yrotation Xrotation
					JOINT RightHand
					{
						OFFSET -3.444170 -0.000000 -0.000000 
						CHANNELS 3 Zrotation Yrotation Xrotation
						JOINT RightHandIndex1
						{
							OFFSET -0.622530 -0.000000 -0.000000 
							CHANNELS 3 Zrotation Yrotation Xrotation
							End Site
							{
								OFFSET 0.000000 0.000000 0.000000 
							}
						}
					}
				}
			}
		}
	}
}
MOTION
Frames: 16
Frame Time: 0.041667
-7.800855 18.073768 4.058730 -0.141892 8.945313 3.757457 -16.140218 -1.417165 -10.090133 -1.319379 10.088340 25.204735 5.037658 -12.958458 5.301267 0.022800 0.975200 2.680700 9.560780 18.572217 -15.677120 0.646331 -12.294959 29.353502 -5.989658 20.395926 12.892542 -0.666700 5.221800 -14.542300 0.797914 0.259467 -4.051322 3.833634 0.525068 -13.223192 5.917158 -18.456872 13.416824 16.827300 -11.744300 7.259800 -74.219226 9.573639 33.172263 24.292448 -30.790122 -8.785515 0.063993 -0.439710 -41.465212 -7.125000 0.000000 0.000000 76.259330 -7.979396 12.314084 -9.516635 18.743684 -2.499600 0.166889 0.593305 22.554251 7.125000 0.000000 0.000000 
-7.825277 18.071116 4.144484 -0.120931 9.378033 3.728607 -16.076276 -1.751017 -9.661305 -1.326205 10.063933 25.145743 5.047286 -12.992247 5.127617 0.017600 0.856400 2.353800 9.823342 18.053474 -15.416748 0.591284 -12.306047 29.442386 -5.997184 20.241135 12.231827 -0.682900 5.283700 -14.719600 0.770353 0.353447 -4.052173 3.742104 0.556306 -13.141021 5.886772 -18.338540 13.545773 16.827300 -11.731200 7.299800 -74.291931 9.740703 33.124601 24.426899 -30.924204 -8.872872 0.080481 -0.442634 -41.402234 -7.125000 0.000000 0.000000 76.331662 -8.041463 12.455105 -9.408023 18.627837 -2.459924 0.166370 0.590250 22.685797 7.125000 0.000000 0.000000 
-7.848373 18.071889 4.228470 -0.129867 9.808625 3.721040 -15.981685 -2.135288 -9.236138 -1.340209 10.027520 25.057107 5.043664 -12.957120 4.990488 0.012300 0.714900 1.964700 10.110024 17.462307 -15.215786 0.543089 -12.312886 29.513478 -5.999708 20.041948 11.621563 -0.698100 5.340800 -14.883200 0.743966 0.453671 -4.058008 3.632787 0.585875 -13.076025 5.855781 -18.204676 13.661592 16.830700 -11.706000 7.323500 -74.388046 9.940141 33.031913 24.549672 -31.047063 -8.954177 0.094657 -0.443747 -41.343899 -7.125000 0.000000 0.000000 76.388779 -8.104462 12.628252 -9.288832 18.500045 -2.416637 0.166800 0.587601 22.850857 7.125000 0.000000 0.000000 
-7.870364 18.075868 4.310024 -0.176929 10.232442 3.732327 -15.847471 -2.561248 -8.822608 -1.358734 9.982335 24.949924 5.028252 -12.858456 4.888607 0.007400 0.556200 1.528200 10.420814 16.856519 -15.056265 0.505626 -12.313372 29.555707 -5.997224 19.821877 11.076384 -0.711600 5.391100 -15.027400 0.719649 0.564311 -4.068236 3.506827 0.615829 -13.029157 5.828416 -18.054215 13.759725 16.841500 -11.666600 7.328600 -74.510283 10.161852 32.897133 24.651853 -31.149588 -9.023228 0.104848 -0.442331 -41.297903 -7.125000 0.000000 0.000000 76.429859 -8.172841 12.840313 -9.170059 18.374048 -2.373647 0.167736 0.585745 23.040624 7.125000 0.000000 0.000000 
-7.891471 18.081835 4.388927 -0.259468 10.642928 3.764686 -15.675891 -3.019380 -8.434600 -1.378162 9.935126 24.841611 5.002864 -12.706777 4.813332 0.003500 0.383700 1.054300 10.746067 16.279694 -14.925560 0.480930 -12.305372 29.562451 -5.989834 19.589863 10.602318 -0.721700 5.428400 -15.134500 0.697836 0.686634 -4.081054 3.369417 0.647607 -12.988632 5.806101 -17.890110 13.842237 16.859100 -11.614500 7.318500 -74.660791 10.374064 32.704748 24.706293 -31.205644 -9.062803 0.109255 -0.437088 -41.261414 -7.125000 0.000000 0.000000 76.451890 -8.235260 13.099344 -9.054713 18.253874 -2.332316 0.167613 0.583843 23.241531 7.125000 0.000000 0.000000 
-7.911804 18.089129 4.465619 -0.381125 11.038300 3.810562 -15.464458 -3.494273 -8.076866 -1.394045 9.891940 24.749880 4.971672 -12.520907 4.752856 0.001000 0.204800 0.562700 11.090256 15.753042 -14.807526 0.469031 -12.288960 29.533750 -5.978405 19.361069 10.195702 -0.729100 5.455600 -15.212800 0.678805 0.821992 -4.096689 3.220954 0.682072 -12.956094 5.789002 -17.710702 13.916255 16.882300 -11.551400 7.299900 -74.846359 10.599809 32.450144 24.730205 -31.232036 -9.083551 0.108455 -0.430148 -41.242381 -7.125000 0.000000 0.000000 76.456658 -8.302412 13.404537 -8.944117 18.141614 -2.292918 0.166431 0.581806 23.454202 7.125000 0.000000 0.000000 
-7.931475 18.096864 4.539991 -0.541367 11.414617 3.867957 -15.214025 -3.976076 -7.758626 -1.403203 9.858640 24.689489 4.936392 -12.310592 4.697885 0.000000 0.020200 0.055400 11.453402 15.283450 -14.700847 0.468859 -12.265670 29.473932 -5.964095 19.148541 9.849445 -0.732800 5.469300 -15.252100 0.662725 0.973420 -4.110531 3.065182 0.721363 -12.907196 5.777122 -17.529518 13.978202 16.908000 -11.481200 7.273400 -75.060168 10.808212 32.138754 24.714271 -31.220359 -9.079321 0.103245 -0.421110 -41.238256 -7.125000 0.000000 0.000000 76.438636 -8.356356 13.760084 -8.837247 18.035898 -2.255324 0.163840 0.578474 23.668660 7.125000 0.000000 0.000000 
-7.950814 18.104710 4.611932 -0.732360 11.773779 3.935306 -14.932897 -4.458968 -7.483843 -1.404150 9.838063 24.667887 4.898388 -12.084751 4.642286 0.000700 -0.168400 -0.462700 11.828618 14.862035 -14.610961 0.477622 -12.237981 29.392185 -5.948928 18.965485 9.556676 -0.733200 5.470500 -15.255500 0.649214 1.138197 -4.126214 2.906316 0.765777 -12.861413 5.769838 -17.346547 14.033761 16.936200 -11.407200 7.245300 -75.305845 11.032489 31.773767 24.675047 -31.186554 -9.060776 0.095662 -0.411477 -41.253007 -7.125000 0.000000 0.000000 76.398036 -8.407647 14.167021 -8.734281 17.936670 -2.219177 0.160331 0.574062 23.882467 7.125000 0.000000 0.000000 
-7.969931 18.112004 4.680888 -0.949611 12.108140 4.010409 -14.626042 -4.934963 -7.254056 -1.396211 9.831336 24.687233 4.856972 -11.842723 4.584852 0.003100 -0.357100 -0.981200 12.214870 14.486566 -14.542473 0.492920 -12.209386 29.298906 -5.933579 18.816462 9.313742 -0.729100 5.455600 -15.212600 0.637637 1.318904 -4.144057 2.744611 0.816778 -12.829150 5.763627 -17.172441 14.077281 16.962100 -11.333200 7.211100 -75.577387 11.264970 31.361729 24.607608 -31.125307 -9.024300 0.085797 -0.401942 -41.284017 -7.125000 0.000000 0.000000 76.338401 -8.465779 14.628785 -8.641443 17.851799 -2.186506 0.156401 0.570863 24.091904 7.125000 0.000000 0.000000 
-7.988939 18.118634 4.746530 -1.171934 12.423697 4.096544 -14.314755 -5.401729 -7.068424 -1.381210 9.837924 24.742286 4.812805 -11.593153 4.525265 0.007100 -0.544100 -1.495200 12.590939 14.139105 -14.502723 0.510487 -12.182475 29.205531 -5.920343 18.707319 9.108290 -0.721800 5.429000 -15.136400 0.625917 1.514967 -4.161238 2.585245 0.875992 -12.794698 5.765935 -17.008550 14.107537 16.992200 -11.259100 7.174100 -75.864057 11.506246 30.931007 24.532222 -31.056164 -8.982128 0.073549 -0.394775 -41.342614 -7.125000 0.000000 0.000000 76.259474 -8.519795 15.146036 -8.564694 17.788297 -2.159343 0.152005 0.569840 24.277341 7.125000 0.000000 0.000000 
-8.007504 18.124381 4.809409 -1.388166 12.724366 4.190022 -14.014936 -5.860160 -6.913673 -1.360505 9.856371 24.827188 4.764344 -11.334271 4.458344 0.012700 -0.726800 -1.997400 12.947780 13.797267 -14.489254 0.527009 -12.159029 29.121394 -5.911635 18.647637 8.927730 -0.711200 5.389800 -15.023700 0.612840 1.721804 -4.175308 2.426273 0.941105 -12.747394 5.780464 -16.854638 14.125391 17.031100 -11.185200 7.137200 -76.160240 11.736266 30.471772 24.433249 -30.964319 -8.924858 0.060299 -0.388933 -41.425603 -7.125000 0.000000 0.000000 76.161656 -8.551630 15.708344 -8.497412 17.737182 -2.135377 0.146493 0.570585 24.442788 7.125000 0.000000 0.000000 
-8.025627 18.129132 4.869194 -1.583150 13.018966 4.288375 -13.740810 -6.313017 -6.782503 -1.336794 9.883798 24.932187 4.712873 -11.075687 4.391353 0.019100 -0.893300 -2.455200 13.271500 13.451149 -14.500768 0.540264 -12.140079 29.052159 -5.907849 18.630108 8.763719 -0.697700 5.339500 -14.879500 0.597227 1.937222 -4.188264 2.270776 1.012537 -12.700378 5.809556 -16.706444 14.135706 17.080000 -11.111500 7.106500 -76.458257 11.960922 30.014091 24.317220 -30.855124 -8.855784 0.043967 -0.384954 -41.543169 -7.125000 0.000000 0.000000 76.045665 -8.582050 16.331602 -8.455443 17.719474 -2.119981 0.139124 0.575391 24.553483 7.125000 0.000000 0.000000 
-8.043751 18.133111 4.925995 -1.756578 13.311815 4.388179 -13.491366 -6.753822 -6.670895 -1.311228 9.917604 25.051001 4.660563 -10.826472 4.333009 0.025400 -1.029200 -2.829300 13.565984 13.098537 -14.530802 0.549689 -12.125166 28.997799 -5.907400 18.638973 8.609925 -0.681800 5.279400 -14.707300 0.579321 2.157383 -4.200662 2.118916 1.088122 -12.662925 5.850287 -16.566463 14.137256 17.135800 -11.039000 7.080000 -76.754505 12.166551 29.553464 24.168822 -30.713114 -8.765905 0.023063 -0.380589 -41.683311 -7.125000 0.000000 0.000000 75.915105 -8.619990 17.022987 -8.444391 17.742654 -2.114983 0.128746 0.582525 24.593086 7.125000 0.000000 0.000000 
-8.061874 18.136315 4.980144 -1.905234 13.616421 4.486434 -13.268246 -7.182936 -6.574755 -1.285173 9.955706 25.177771 4.610209 -10.597380 4.286649 0.031000 -1.137400 -3.126900 13.831048 12.730602 -14.574251 0.554626 -12.113879 28.957990 -5.909505 18.659406 8.454824 -0.665800 5.218500 -14.532800 0.559594 2.377368 -4.213672 1.976436 1.166982 -12.637219 5.907228 -16.427387 14.141371 17.202900 -10.968400 7.070100 -77.050499 12.372291 29.105278 24.006273 -30.555546 -8.666315 -0.003753 -0.377015 -41.847015 -7.125000 0.000000 0.000000 75.769434 -8.669248 17.769157 -8.456537 17.795841 -2.117561 0.116229 0.586948 24.595001 7.125000 0.000000 0.000000 
-8.080108 18.138857 5.031530 -2.037252 13.938920 4.578132 -13.065963 -7.594551 -6.490698 -1.257449 9.998362 25.314036 4.561718 -10.384511 4.242019 0.036400 -1.231500 -3.385900 14.078163 12.343146 -14.622430 0.555644 -12.104729 28.928190 -5.912861 18.678435 8.288566 -0.649600 5.155700 -14.353000 0.539461 2.594235 -4.223115 1.843139 1.247220 -12.605125 5.977030 -16.294513 14.141483 17.279100 -10.899200 7.069500 -77.340367 12.565144 28.680961 23.829669 -30.383793 -8.557759 -0.035141 -0.373717 -42.030333 -7.125000 0.000000 0.000000 75.605830 -8.716995 18.562166 -8.491246 17.878029 -2.127433 0.103138 0.588405 24.542510 7.125000 0.000000 0.000000 
-8.098673 18.140846 5.080706 -2.146790 14.292089 4.663056 -12.887625 -7.989524 -6.420636 -1.228175 10.046371 25.460903 4.517271 -10.196510 4.199225 0.041300 -1.311100 -3.605200 14.303844 11.933515 -14.669847 0.553055 -12.095606 28.903982 -5.916157 18.678521 8.106750 -0.633500 5.092600 -14.172900 0.519388 2.800939 -4.233092 1.722385 1.326131 -12.591541 6.054835 -16.164249 14.134900 17.362500 -10.830100 7.069000 -77.624920 12.772130 28.285583 23.641136 -30.200666 -8.442185 -0.069539 -0.370382 -42.225224 -7.125000 0.000000 0.000000 75.428366 -8.779392 19.391839 -8.550194 17.990416 -2.144903 0.091512 0.586919 24.433312 7.125000 0.000000 0.000000 
